<?xml version="1.0" encoding="UTF-8"?> <!-- Generator: Adobe Illustrator 25.3.1, SVG Export Plug-In . SVG Version: 6.00 Build 0) --> <svg xmlns="http://www.w3.org/2000/svg" xmlns:xlink="http://www.w3.org/1999/xlink" version="1.1" id="Layer_1" x="0px" y="0px" viewBox="0 0 1110 605" style="enable-background:new 0 0 1110 605;" xml:space="preserve"> <style type="text/css"> .st0{fill:#138ECD;} .st1{fill:#136FB6;} .st2{fill:#CACED8;} .st3{fill:#FFFFFF;} .st4{clip-path:url(#SVGID_2_);} .st5{clip-path:url(#SVGID_2_);fill:#FFFFFF;} </style> <g> <g> <g> <g> <path class="st0" d="M864.39,321.38l-48.86,98.29h21.63c0,0,28.27-53.23,35.3-59.88c7.02-6.65,16.26-16.63,28.46-20.33 c12.2-3.7,17-1.85,17-1.85l8.82-17.58c0,0-12.93-1.64-23.62,2.79c0,0-17.41,7.85-22.58,13.4l6.3-13.67L864.39,321.38z"></path> <path class="st0" d="M799.27,321.35c-11.49,1.67-32.9,6.65-52.49,21.44c-36.86,27.82-46.2,69.54-26.61,77.3 c19.59,7.76,60.6-8.18,71.33-20.38l-8.61,20.38h22.09l46.78-98.74C851.75,321.35,819.6,318.39,799.27,321.35z M789.29,388.99 c-8.5,8.5-35.11,24.03-49.16,17.82c-14.05-6.2-7.76-30.39,18.48-54.04c26.24-23.66,62.47-18.48,62.47-18.48 S797.79,380.49,789.29,388.99z"></path> <path class="st0" d="M1003.3,279.58l19.96-39.18l-33.27,1.48l-19.22,38.44l-220.58,1.65l54.98-122.88h-36.96l-59.91,123.38 c0,0-133.03-4.36-160.38,0.07c-27.35,4.44-47.73,14.04-67.27,25.42c-28.09,16.35-46.27,56.64-40.35,75.86 c5.91,19.22,19.65,27.35,43.31,31.79c23.66,4.44,192.3,1.02,201.12,0.99c2.54-3.67,49.49-105.23,49.49-105.23l220.3,1.48 c0,0-26.7,53.5-28.09,56.92c-4.8,11.83-6.28,23.66,0.74,37.04c10.72,20.43,45.46,18.4,45.46,18.4l19.59-25.5 c0,0-19.74,5.24-32.53-1.66c-12.88-6.95-3.7-22.36,3.7-37.15c7.39-14.78,24.39-48.79,24.39-48.79s42.88,2.22,43.62,0 c0.74-2.22,14.05-33.27,14.05-33.27L1003.3,279.58z M662.14,390.1c0,0-131.96,5.91-163,0c-31.05-5.91-23.29-26.98-23.29-26.98 c14.78-42.51,63.21-49.16,78.73-51.01c15.52-1.85,143.04,0,143.04,0L662.14,390.1z"></path> </g> <g> <g> <path class="st1" d="M213.73,97.69c1.66-0.01,135.01,14.17,135.01,14.17s-3.23,18.68-1.35,37.99c1.67,17.12,10,43.61,10,43.61 s16.68-31.51,30.54-46.28c13.86-14.77,21.33-16.64,28.81-14.27c14.12,4.48,23.34,32.54,11.62,70.39c0,0,20.15-52.68-8.69-72.79 c-32.38-22.59-51.41-32.64-73.08-42.14c-22.2-5.09-56.99-10.32-94.69-1.6C214.2,95.49,213.73,97.69,213.73,97.69z"></path> <path class="st2" d="M390.17,149.87c0,0,4.03,10.39,0.03,36.39c-1.02,6.64-5.41,24.5-7.87,31.87 c-5.43,16.31-13.67,33.57-13.67,33.57s18.17,19.64,26.51,37.47c0,0,17.32-39.56,24.95-59.25c8.84-22.83,17.09-55.67,6.75-80.07 c-10.34-24.4-26.27-10.67-31.82-5.13C393.93,145.85,390.17,149.87,390.17,149.87z"></path> <circle class="st3" cx="279.37" cy="343.54" r="127.9"></circle> <path class="st2" d="M113.5,491.67c0,0-1.09,21.55,23.17,27.18c24.27,5.63,54.31-13.39,54.31-13.39l39.87-31.67l-45.06-20.57 c0,0-24.02,24.89-45.06,31.03S113.5,491.67,113.5,491.67z"></path> <g> <circle class="st2" cx="272.81" cy="344.47" r="124.27"></circle> <g> <defs> <circle id="SVGID_1_" cx="273.13" cy="344.16" r="124.58"></circle> </defs> <clipPath id="SVGID_2_"> <use xlink:href="#SVGID_1_" style="overflow:visible;"></use> </clipPath> <g class="st4"> <path class="st3" d="M383.74,399.77c0.01-0.02,0.03-0.03,0.04-0.05c0-0.01,0-0.02,0.01-0.03L383.74,399.77z"></path> <path class="st3" d="M385.35,395.76c0.01-0.01,0.03-0.02,0.04-0.03c0-0.02,0-0.04,0-0.06L385.35,395.76z"></path> <path class="st3" d="M382.14,402.17c0.01,0,0.02-0.01,0.03-0.01c0-0.02,0-0.03,0-0.05L382.14,402.17z"></path> <path class="st3" d="M381.34,403.77c0.01,0,0.02-0.01,0.03-0.01c0-0.01,0-0.03,0.01-0.04L381.34,403.77z"></path> <path class="st3" d="M292.78,471.14v-3.71C285.65,468.9,287.04,470.97,292.78,471.14z"></path> <path class="st3" d="M390.45,339.9c-1.08-0.28-1.73-0.39-2.35-0.62c-1.09-0.4-1.79-0.03-2.27,0.96 c-0.29,0.6-0.62,1.18-0.88,1.79c-1.02,2.38-2.56,4.37-4.53,6.01c-0.91,0.76-1.99,1.32-2.98,2 c-0.77,0.53-0.87,1.27-0.57,2.11c0.51,1.43,1.7,2.37,2.49,3.59c0.88,1.35,2.07,1.51,3.47,1.38 c1.44-0.13,2.78-0.68,4.33-0.33c2.01,0.45,2.79-0.17,2.95-2.11c0.19-2.29,0.6-4.48,1.89-6.43c0.42-0.64,0.23-1.28-0.25-1.82 c-0.35-0.4-0.73-0.77-1.12-1.15c-1.07-1.04-1.39-2.22-0.74-3.62C390.13,341.2,390.22,340.67,390.45,339.9z"></path> <path class="st3" d="M289.64,423.96c0.61-1.49,0.89-3.04,1.02-4.66c0.34-4.3-0.94-8.46-0.95-12.74 c0-1.54-0.86-3.03-2.66-3.94c-0.35,0.86-0.7,1.56-0.93,2.3c-0.49,1.53-0.83,3.33-2.23,4.15c-2.89,1.7-3.09,3.98-2.15,6.8 c0.2,0.61,0.03,1.34,0.15,1.99c0.43,2.36,0.79,4.74,2.05,6.85c0.77,1.28,1.99,1.74,3.42,1.33 C288.44,425.72,289.22,424.99,289.64,423.96z"></path> <path class="st3" d="M374.94,364.4c-0.01,0-0.03,0-0.04,0c0,0.01,0.01,0.02,0.01,0.03L374.94,364.4z"></path> <path class="st3" d="M354.27,350.86c-0.39-0.04-0.88,0.07-0.91,0.52c-0.02,0.34,0.23,0.71,0.42,1.04 c0.13,0.22,0.35,0.41,0.56,0.57c4.66,3.58,9.36,7.1,14.49,10c1.91,1.08,3.88,1.7,6.08,1.43c-0.4-1.66-0.77-3.28-0.22-5.04 c0.35-1.1-0.72-1.91-1.97-1.46c-1.64,0.59-2.97,0.16-3.83-1.11c-0.96-1.43-2.29-2.16-3.72-2.88 c-0.82-0.41-1.7-0.74-2.27-1.53c-1.91,0.03-3.62-0.86-5.46-1.13C356.38,351.1,355.32,350.96,354.27,350.86z"></path> <path class="st3" d="M366.68,353.43c0.5,0.2,1.1,0.34,1.39-0.22c0.15-0.28,0.04-0.83-0.15-1.12 c-2.15-3.26-4.76-6.06-8.35-7.79c-0.35-0.17-0.74-0.32-1.12-0.37c-0.22-0.03-0.54,0.11-0.67,0.28 c-0.14,0.17-0.2,0.53-0.12,0.72c0.33,0.72,0.66,1.47,1.12,2.1c1.33,1.81,2.73,3.57,4.1,5.34 C364.29,352.24,365.46,352.93,366.68,353.43z"></path> <path class="st3" d="M362.89,352.37C362.88,352.38,362.88,352.37,362.89,352.37c0,0.01,0,0.01,0.01,0.02c0,0,0.01,0,0.01,0 C362.9,352.39,362.89,352.38,362.89,352.37z"></path> <path class="st3" d="M374.94,364.4c0,0-0.03,0.04-0.03,0.04c0.01,0,0.03,0,0.04-0.01 C374.95,364.42,374.94,364.41,374.94,364.4z"></path> <path class="st3" d="M376.51,365.95c2.25,0.15,4.52,0.29,6.72-0.23c1.43-0.34,2.86-0.49,4.32-0.54 c1.17-0.04,2.46,0.09,3.26-1.03c0.42-0.59-1.26-1.29-3.33-1.25c-0.92,0.02-1.84,0.18-2.75,0.3 c-3.26,0.41-6.52,0.82-9.78,1.23C375.17,365.25,375.6,365.89,376.51,365.95z"></path> <g> <path class="st3" d="M384.35,273.43c-4.44-6.94-9.54-13.37-15.52-19.06c-0.95-0.91-1.78-1.95-2.66-2.93 c-0.51-0.43-1.03-0.84-1.52-1.29c-9.41-8.61-19.9-15.61-31.48-20.97c-12.44-5.76-25.51-9.25-39.13-10.67 c-8.38-0.88-16.77-0.62-25.16,0.06c-0.22,0.33-0.61,0.65-0.61,0.98c-0.01,0.44,0.51,0.49,0.89,0.49 c2.94,0,5.87-0.01,8.81-0.01c1.47,0,2.94,0.06,4.4,0.01c2.34-0.08,4.55,0.06,5.98,2.33c0.46,0.73,1.41,0.69,2.09,1.08 c0.17,0.1,0.34,0.43,0.3,0.62c-0.03,0.2-0.29,0.51-0.47,0.53c-1.19,0.1-2.39,0.17-3.58,0.19 c-1.13,0.02-2.03,0.44-2.84,1.25c-0.62,0.62-1.01,1.15-0.56,2.07c0.26,0.53-0.29,0.65-0.68,0.67 c-0.86,0.03-1.55-0.3-2.01-1.05c-0.26-0.43-0.3-1.02-0.9-1.22c-0.85,0.52-1.03,1.5-1.46,2.3 c-0.41,0.76-0.34,1.51,0.05,2.29c0.54,1.06,1.08,2.13,1.51,3.23c0.52,1.32,1.47,1.81,2.79,1.74 c-0.29,0.73-0.73,1.45-0.38,2.26c1.15,2.58-0.8,4.28-1.84,6.16c-0.52,0.95-1.78,1.1-2.87,1.1c-0.38,0-0.95-0.03-1.1-0.26 c-0.37-0.58,0.18-0.92,0.61-1.18c1.05-0.63,1.9-1.44,2.44-2.56c0.74-1.53,1.22-3.01-0.48-4.26 c-0.21-0.15-0.38-0.37-0.55-0.58c-0.96-1.21-0.31-2.93-1.31-4.12c-0.96-1.14-1.6-2.33-1.77-3.9 c-0.21-1.93-1.22-2.4-3.1-1.94c-1.39,0.34-2.43,0.97-2.77,2.48c-0.21,0.9-0.43,1.87-0.92,2.62 c-1.24,1.87-0.65,3.47,0.32,5.19c0.43,0.77,1,1.16,1.74,1.5c0.59,0.26,1.16,0.64,1.61,1.09c0.29,0.29,0.14,0.85-0.3,0.93 c-0.77,0.14-1.63,0.32-2.34,0.11c-2.87-0.85-10.99-2.36-13.91-2.37c-0.17,0.36-1.07,6.81-1.15,7.19 c-1.25,6.12-1.06,10.14-1.44,16.39c-0.38,6.23,0.02,14.75-0.29,20.99c-0.4,8.09,0.79,13.46,1.15,21.56 c0.91-0.77,4.1-3.4,5-4.19c0.88-0.77,1.9-0.92,2.99-0.73c0.53,0.09,1.01,0.34,1.18,0.93c0.16,0.53,0.16,1.05-0.2,1.5 c-0.16,0.2-0.4,0.34-0.6,0.51c-2.1,1.9-2.14,2.2-0.32,4.04c1.3,1.32,2.53,2.84,4.78,2.06c0.2-0.07,0.69,0.38,0.88,0.68 c0.36,0.58-0.08,0.91-0.5,1.29c-1.14,1.02-1.17,1.31-0.44,2.18c0.6,0.71,1.29,1.35,1.82,2.12 c0.62,0.89,0.48,2.24-0.17,2.99c-1.29,1.52-4.22,2.01-5.87,0.97c-0.7-0.44-1.22-1.06-1.37-1.88 c-0.12-0.65-0.22-1.34-0.14-1.98c0.24-1.87-0.7-2.99-2.19-3.89c-1.37-0.82-2.44-2.11-5.15-0.31c0,0,0,0,0,0.01 c2.94,0.9,1.18,2.4,0.6,3.75c-0.13,1.67,0.18,1.25-0.29,3.16c-3.29-1.47-2.89-2.26-5.89-3.83 c-0.49,0.63-0.95,1.28-1.47,1.89c-0.63,0.74-1.46,1.26-2.42,1.24c-2.82-0.04-5.5,1.09-8.34,0.85 c-1.54-0.13-2.87,0.37-4,1.45c-0.98,0.93-2.2,1.5-3.45,1.99c-1.42,0.55-2.73,0.01-3.14-1.49c-0.61-2.23-0.71-4.5,0.42-6.62 c0.5-0.93,1.12-1.84,1.86-2.58c1.23-1.22,3.09-0.65,3.72,1.03c0.28,0.74,0.54,1.5,0.92,2.19c0.17,0.3,0.59,0.57,0.93,0.64 c0.75,0.15,0.7-0.49,0.88-0.99c0.75-2.1,2.5-3.21,4.51-2.89c1.05,0.17,2.08,0.46,3.12,0.68c0.72,0.15,6.84-1.98,7.31-2.51 c-7.69-11.13-16.9-15.87-27.04-23.05c-3.24-2.3-13.63-12.54-16.84-10.42c-2.03,1.34-12.13,12.38-13.76,14.14 c-8.62,9.32-15.14,17.2-23.26,26.96c-0.42,0.51,4.24,7.45,3.85,7.99c0.5,0.86,1.29,1.29,2.2,1.63 c0.6,0.23,1.21,0.6,1.66,1.05c1.36,1.36,1.06,3.34-0.63,4.4c-1.83,1.15-3.88,1.77-5.91,2.46 c-1.26,0.43-2.55,0.81-3.75,1.39c-1.26,0.62-1.56,1.74-0.78,3.01c1.34,2.18,2.37,4.5,3.09,6.94 c0.5,1.68,1.55,2.38,3.25,2.32c0.66-0.02,1.34,0.06,1.99,0.17c0.87,0.15,1.3,1.02,0.87,1.83c-0.51,0.94-1,1.91-1.68,2.73 c-1.87,2.25-2.36,4.89-1.74,7.55c0.62,2.63-0.34,4.38-2.09,6.04c-0.68,0.64-1.31,1.33-1.95,2.02 c-0.74,0.8-1.33,1.74-1.51,2.79c-0.43,2.49-0.79,5-1.04,7.52c-0.08,0.75,0.18,1.61,0.5,2.32 c1.55,3.43,2.54,7.05,3.36,10.69c0.42,1.88,1.27,3.06,3.09,3.81c1.46,0.6,2.74,1.63,4.07,2.52 c1.77,1.2,3.45,2.53,5.27,3.65c3.29,2.04,6.69,2.42,10.26,0.53c3.66-1.95,7.49-3.57,10.84-6.06 c1.74-1.29,3.5-1.79,5.58-0.76c1.6,0.79,3.29,1.03,5.04,0.25c0.46-0.21,1.05-0.16,1.58-0.16c1.26,0.01,2.08,0.51,2.36,1.73 c0.35,1.53,1.21,3.02,0.58,4.69c-0.58,1.54,0.14,2.61,1.33,3.42c3.13,2.13,5.57,4.99,8.23,7.61 c0.85,0.83,1.56,1.82,2.22,2.82c1.41,2.12,1.92,4.39,0.82,6.84c-0.11,0.24-0.15,0.51-0.23,0.77 c-1.37,4.68-0.77,6.74,3.27,9.66c2.72,1.97,4.64,4.41,5.6,7.59c0.56,1.86,1.64,3.32,3.02,4.64c1.64,1.57,3.2,3.23,4.84,4.8 c1.24,1.18,2.12,2.4,1.36,4.23c-0.18,0.45-0.07,1.04,0,1.55c0.09,0.64,1.07,1.12,1.58,0.74c3.05-2.23,6.56-3.55,9.93-5.16 c2.59-1.23,4.55-3.33,5.9-5.83c1.33-2.46,2.31-5.11,3.44-7.67c0.34-0.77,0.37-1.57,0.07-2.35 c-0.49-1.29-0.09-2.27,0.77-3.29c2.33-2.76,2.41-4.12,0.68-7.14c-0.63-1.11-2.22-1.94-1.53-3.45 c0.48-1.05,1.49-1.85,2.27-2.76c0.17-0.2,0.39-0.37,0.56-0.58c5.1-6.17,4.6-7.76,1.44-13.62c-0.81-1.5-1.74-2.93-2.83-4.23 c-2.08-2.48-2.1-5.12-1.23-8.02c1.2-4,3.02-7.7,5.16-11.27c2.34-3.92,4.3-8,5.21-12.52c0.29-1.46,0.34-2.92,0.27-4.38 c-0.05-1.01-0.74-1.35-1.67-0.85c-2.35,1.27-4.68,2.58-7.04,3.82c-0.58,0.31-1.23,0.56-1.88,0.63 c-0.87,0.1-1.57-0.36-1.91-1.16c-0.28-0.67-0.07-1.29,0.54-1.76c2.12-1.62,4.25-3.24,6.35-4.9 c2.93-2.32,5.92-4.56,8.51-7.29c1.67-1.77,3.04-3.73,4.13-5.88c0.42-0.83,0.77-1.72,0.95-2.62c0.5-2.58-0.04-3.7-2.74-4.26 c-1.94-0.41-2.81-2.4-4.75-2.58c-1.2,1.4-2.01,3.15-3.76,4.05c-0.45,0.23-0.73,0.79-1.17,1.07 c-0.52,0.32-1.06,0.13-1.36-0.4c-0.26-0.45-0.45-0.96-0.6-1.47c-0.2-0.7-0.58-1.23-1.3-1.35 c-2.49-0.42-3.73-2.44-5.26-4.08c-0.37-0.4-0.44-0.96-0.13-1.48c0.38-0.64,1.04-1.01,1.69-0.81 c1.14,0.34,2.26,0.82,3.3,1.4c2.3,1.28,4.59,2.13,7.25,1.06c1.01-0.41,2.1-0.26,3.15,0.08c3.39,1.08,6.6,0.42,9.71-1.08 c0.72-0.35,1.43-0.73,2.17-1.05c2.1-0.91,4.16-1.06,5.98,0.63c0.94,0.87,2.02,1.26,3.28,1.27c0.47,0,0.49,0.39,0.65,0.76 c0.88,2.04,1.91,2.5,3.93,1.89c1.79-0.54,1.6-0.49,2.74,1.46c1.17,2,2.26,4.04,3.35,6.09c1.97,3.72,4.76,6.75,7.88,9.5 c1.35,1.19,2.33,0.9,3.14-0.74c0.48-0.98,0.75-2.01,0.73-3.09c-0.04-2.4,0.3-4.82-0.47-7.17c-0.32-0.96-0.1-1.81,0.38-2.67 c1.83-3.27,3.64-6.54,5.84-9.58c1.18-1.63,2.4-3.23,4.47-3.84c0.37-0.11,0.71-0.36,1.04-0.59c0.63-0.45,0.97-1.41,1.9-1.32 c1.2,0.12,2.37,0.48,3.31,1.3c1.72,1.5,3.38,3.05,4.18,5.29c0.18,0.5,0.34,1.02,0.59,1.49c0.58,1.1,1.79,1.27,2.63,0.37 c0.27-0.29,0.46-0.66,0.67-0.99c0.21-0.33,0.41-0.66,0.72-1.15c2.48,2.42,3.54,5.41,4.98,7.99c0.25,0.45,0.51,0.89,0.8,1.3 c0.97,0.07,1-0.5,1.05-1.01c0.06-0.53,0.01-1.08,0.11-1.6c0.31-1.71,1.33-2.43,2.83-1.77c2.53,1.12,5.22,1.91,7.39,3.81 c2.24-1.32,3.35-3.43,4.41-5.6c0.6-1.23,0.36-2.32-0.31-3.41c-0.99-1.62-2.42-2.85-3.81-4.09 c-0.39-0.35-0.89-0.59-1.32-0.91c-3.6-2.67-2.88-3.11-1.28-6.25c0.72-1.41,1.92-1.85,3.36-1.47 c1.07,0.29,1.77-0.07,2.49-0.79c3.3-3.32,6.63-6.61,9.96-9.9c0.96-0.95,1.75-2.01,2.29-3.26c0.88-2.03,1.27-4.06,0.31-6.18 c-0.25-0.55-0.47-1.11-0.62-1.69c-0.64-2.49-1.69-4.54-4.06-5.92c-2.03-1.19-1.95-1.84-0.39-3.81 c0.33-0.42,0.72-0.79,1.06-1.2c0.36-0.43,0.58-0.97,0.22-1.44c-0.35-0.46-0.97-0.48-1.48-0.35 c-1.41,0.36-2.75,1.02-4.27,0.28c-1.24-0.6-1.51-1.4-0.62-2.48c0.76-0.93,1.54-1.85,2.32-2.76 c0.95-1.09,1.19-0.92,2.47-0.09c1.95,1.27,7.19,2.51,8.29,4.35l2.31-4.03C386.9,277.5,385.64,275.45,384.35,273.43z M241.6,334.79c-0.07,1.56-0.76,2.8-2.41,3.33c-0.88,0.29-1.78,0.64-2.55,1.15c-3.38,2.24-7.07,2.18-10.82,1.48 c-1.6-0.3-3.18-0.5-4.77-0.23c-1.42,0.24-2.33,0.98-2.69,2.54c-0.61,2.71-0.82,2.77-3.39,2.92 c-4.03,0.24-8-0.28-11.95-0.95c-1.46-0.25-1.92-0.81-2.17-2.45c-0.63-4.07-0.63-4.08-4.61-3.1 c-3.38,0.83-6.68,1.88-9.76,3.58c-1.04,0.58-2.07,1.25-3.33,1.32c-0.18,1.73-1.67,2.28-2.82,3.13 c-0.43,0.32-0.99,0.63-1.46,0.32c-0.61-0.41-0.64-1.14-0.41-1.8c0.51-1.48,1.23-1.88,3.03-1.79 c0.53,0.03,1.06,0.04,1.59,0.06c-0.34-2.72-0.43-5.44-0.17-8.28c0.4,0.11,0.78,0.15,1.1,0.32c0.8,0.42,1.28,0.14,1.45-0.66 c0.24-1.06,0.02-2.1-0.2-3.15c-0.5-2.39-0.32-2.66,1.89-3.55c1.23-0.5,2.45-1.01,3.67-1.52c1.32-0.56,2.36-0.27,2.97,0.96 c0.29,0.58,0.42,1.24,0.54,1.88c0.18,0.91,0.19,1.86,0.45,2.73c0.21,0.69,0.17,1.64,1.18,1.86 c0.62,0.14,0.85-0.97,0.47-2.36c-0.45-1.66-1.28-3.22-1.24-5c0.02-0.92,0.75-1.46,1.62-1.09c0.98,0.41,1.92,0.9,2.88,1.35 c1.79,0.85,3.49,1.95,5.53,2.19c1.13,0.13,1.81,1.06,2.73,1.57l0.13-0.13c0.08-0.52,0.03-1.12,0.27-1.55 c0.31-0.54,1.25-0.97,1.22-1.39c-0.08-1.07-1.43-0.95-2.14-1.29c-1-0.49-2.08-0.77-3.18-0.93c-2.51-0.36-4.1-1.9-5.46-3.74 c-0.34-0.46-0.4-1.05-0.01-1.47c0.21-0.23,0.75-0.38,1.06-0.29c2.05,0.6,4.09,1.26,6.12,1.91 c3.67,1.18,6.74,3.16,8.79,6.52c0.84,1.37,1.76,2.68,3.2,3.53c0.76,0.45,1.59,0.19,1.96-0.66c0.43-1.01,0.8-2.01-0.2-2.94 c-0.49-0.45-0.94-0.96-1.35-1.48c-0.58-0.75-0.49-1.62,0.25-2.08c0.67-0.42,1.39-0.82,2.14-1.06 c1.29-0.42,2.37,0.01,3.11,1.16c0.65,1.01,1.15,2.11,1.86,3.08c0.93,1.26,2.08,1.69,3.81,1.47 c3.64-0.45,7.02-1.57,10.38-2.91c0.93-0.37,1.63,0.07,1.66,1.06C241.63,330.51,241.69,332.66,241.6,334.79z M261.25,362.45 c-3.42-2.73-7.18-5.04-10.18-8.3c-1.62-1.76-3.42-3.35-5.04-5.12c-1.07-1.17-1.98-2.49-2.94-3.76 c-0.42-0.56-0.66-1.24-0.19-1.83c0.61-0.78,1.42-0.5,2.16-0.14c0.47,0.24,0.97,0.47,1.38,0.8 c5.93,4.74,11.49,9.86,16.09,15.94c0.81,1.07,1.5,2.19,1.63,3.57C263.05,363.57,262.07,363.11,261.25,362.45z M277,299.62 c-0.03,0.51,0.02,1.33-0.73,1.85c-0.71,0.5-2.58,0.64-2.99,0.24c-0.9-0.88-1.14-3.14-0.29-3.96 c0.72-0.7,1.43-1.92,2.47-1.67c1.26,0.3,1.42,1.69,1.54,2.88C277.01,299.08,277,299.22,277,299.62z M287.18,236.47 c-0.11,0.44-0.54,0.56-0.86,0.34c-1.12-0.77-2.35-0.89-3.63-0.8c1.22-0.92,2.57-0.97,3.96-0.46 C287.01,235.68,287.29,236.04,287.18,236.47z"></path> </g> </g> <path class="st5" d="M324.72,355.48c0,0,0.14,0.87,0.04,1.52c-0.1,0.66-0.49,1.23-0.32,1.56c0.22,0.41,1.17,1.1,1.6,0.91 c0.43-0.19,0.57-1.37,0.46-1.82C326.34,356.98,324.72,355.48,324.72,355.48z"></path> <path class="st5" d="M358.29,346.3l-3.26-5.91l1.52-2.09c0,0-0.13,1.43,0.35,2.52c0.48,1.09,2.44,3.39,2.44,3.39l2.13,1.17 L358.29,346.3z"></path> </g> </g> <path class="st1" d="M111.9,506.78c-3.94-7.84-10.68-21.69-5.5-55.71c7.09-46.61,25.59-70.36,41.81-94.22 c31.84-46.84,50.63-64.81,55.32-69.89c4.68-5.07,9.36-4.42,13.78-1.17l39.42,31.3c1.09,0.84,2.66,0,2.58-1.38 c-0.82-12.99-3.02-58.62,4.54-82.69c7.24-23.07,23.33-49.86,28.99-58.91c0.75-1.2-0.3-2.7-1.68-2.42 c-16.8,3.39-86.05,17.31-106.46,20.71c-19.63,3.27-54.62,6.75-66.49,9.22c-3.1,0.64-2.43,1.89-1.47,2.53 c13.67,9.14,30.84,24.22,31.65,39.61c0.02,0.42-0.12,0.83-0.4,1.14c-4.3,4.92-40.59,47.05-58.63,88.92 c-23.74,55.07-29.41,74.03-24.97,117.66c0,0,1.24,14.11,6.69,24.58c0.08,0.15,0.18,0.29,0.3,0.41 c1.8,1.76,16.25,15.84,21.32,19.82c4.41,3.46,11.19,8.47,16.88,12.62c1.37,1,3.16-0.54,2.37-2.04 C111.93,506.83,111.91,506.8,111.9,506.78z"></path> </g> </g> </g> <g> <path class="st0" d="M398.85,477.21c-1.13-0.74-2.38-1.29-3.74-1.66c-1.32-0.38-3.05-0.57-5.19-0.57 c-1.84-0.02-3.53,0.3-5.07,0.95c-1.53,0.65-2.85,1.55-3.95,2.69c-1.1,1.14-1.95,2.49-2.55,4.04c-0.6,1.55-0.89,3.22-0.86,5 c0,1.91,0.32,3.64,0.96,5.21c0.64,1.57,1.52,2.9,2.62,4.01c1.1,1.1,2.4,1.96,3.88,2.56c1.48,0.61,3.06,0.91,4.74,0.91 c0.8,0,1.47-0.01,2.01-0.05c0.54-0.03,0.99-0.07,1.37-0.13c0.38-0.05,0.71-0.11,0.99-0.18c0.28-0.07,0.56-0.13,0.85-0.19v-9.86 h-6.83v-3.81h11.45v16.85c-0.88,0.32-2.12,0.63-3.72,0.95c-0.79,0.17-1.69,0.29-2.71,0.37c-1.02,0.08-2.17,0.12-3.46,0.12 c-2.57,0-4.91-0.4-7.01-1.19c-2.1-0.79-3.9-1.93-5.39-3.4c-1.49-1.47-2.64-3.25-3.46-5.33c-0.82-2.08-1.22-4.41-1.22-7 c0-2.51,0.43-4.78,1.28-6.83c0.85-2.04,2.04-3.79,3.56-5.24c1.52-1.45,3.33-2.57,5.42-3.37c2.09-0.79,4.38-1.19,6.86-1.19 c1.19,0,2.23,0.04,3.12,0.12c0.88,0.08,1.69,0.2,2.4,0.35c0.72,0.15,1.39,0.33,2.03,0.52c0.63,0.2,1.29,0.41,1.97,0.63 L398.85,477.21z"></path> <path class="st0" d="M424.48,471.45h4.65v28.34h13.56v4.08h-18.21V471.45z"></path> <path class="st0" d="M464.9,487.66c0-2.4,0.35-4.63,1.05-6.67c0.7-2.04,1.72-3.81,3.05-5.31c1.33-1.5,2.96-2.67,4.9-3.51 c1.93-0.85,4.13-1.27,6.6-1.27c2.45,0,4.64,0.42,6.56,1.27c1.93,0.85,3.56,2.02,4.9,3.51c1.34,1.5,2.36,3.27,3.07,5.31 c0.71,2.04,1.07,4.26,1.07,6.67c0,2.46-0.35,4.72-1.04,6.78c-0.7,2.06-1.71,3.82-3.04,5.31c-1.33,1.48-2.96,2.63-4.9,3.46 c-1.94,0.82-4.14,1.24-6.62,1.24c-2.48,0-4.69-0.41-6.62-1.24c-1.94-0.82-3.57-1.98-4.9-3.46c-1.33-1.48-2.34-3.25-3.04-5.31 C465.24,492.39,464.9,490.13,464.9,487.66z M469.82,487.68c0,1.62,0.21,3.19,0.62,4.71c0.42,1.52,1.06,2.87,1.93,4.05 c0.87,1.18,1.98,2.13,3.32,2.85c1.35,0.72,2.95,1.08,4.81,1.08c1.86,0,3.46-0.36,4.8-1.08s2.45-1.67,3.32-2.85 c0.88-1.18,1.52-2.53,1.94-4.05c0.42-1.52,0.62-3.09,0.62-4.71c-0.02-1.63-0.24-3.22-0.68-4.75c-0.44-1.54-1.1-2.89-1.98-4.07 c-0.88-1.18-2-2.12-3.33-2.83c-1.34-0.7-2.9-1.05-4.68-1.03c-1.8-0.02-3.36,0.33-4.69,1.03c-1.33,0.7-2.44,1.65-3.32,2.83 c-0.88,1.18-1.55,2.54-2,4.07C470.04,484.46,469.82,486.04,469.82,487.68z"></path> <path class="st0" d="M520.77,471.45h8.78c1.68,0,3.22,0.15,4.61,0.44c1.4,0.29,2.6,0.77,3.61,1.42c1.01,0.65,1.78,1.5,2.34,2.54 c0.55,1.04,0.83,2.31,0.83,3.79c0,2.21-0.61,3.92-1.81,5.12c-1.19,1.19-2.82,2.06-4.88,2.58v0.09c1.1,0.09,2.12,0.33,3.04,0.73 c0.92,0.39,1.72,0.93,2.38,1.6c0.66,0.67,1.18,1.47,1.55,2.39c0.37,0.92,0.56,1.95,0.56,3.08c0,1.74-0.33,3.17-1,4.29 c-0.67,1.12-1.56,2-2.7,2.64c-1.13,0.64-2.45,1.09-3.95,1.34c-1.5,0.25-3.07,0.37-4.72,0.37h-8.64V471.45z M525.42,485.31h2.54 c1.12,0,2.18-0.05,3.19-0.15c1-0.1,1.89-0.32,2.65-0.67c0.76-0.35,1.37-0.87,1.81-1.56c0.45-0.7,0.67-1.64,0.67-2.83 c0-0.95-0.19-1.74-0.56-2.36c-0.37-0.62-0.85-1.11-1.43-1.49c-0.58-0.37-1.23-0.63-1.94-0.77c-0.71-0.14-1.4-0.22-2.06-0.22 h-4.88V485.31z M525.42,500.07h3.47c1.06,0,2.07-0.07,3.03-0.22c0.96-0.14,1.81-0.41,2.54-0.79c0.73-0.39,1.32-0.92,1.75-1.6 c0.43-0.68,0.65-1.56,0.65-2.63c0-1.25-0.25-2.26-0.75-3.02c-0.5-0.76-1.15-1.33-1.96-1.73c-0.81-0.4-1.71-0.66-2.71-0.78 c-1-0.12-2-0.18-2.99-0.18h-3.02V500.07z"></path> <path class="st0" d="M575.92,471.45h4.88l13.7,32.43h-5.06l-3.31-8.16h-15.87l-3.29,8.16h-4.88L575.92,471.45z M578.19,475.83 l-6.44,16.08h12.9L578.19,475.83z"></path> <path class="st0" d="M617.08,471.45h4.65v28.34h13.56v4.08h-18.21V471.45z"></path> <path class="st0" d="M683.24,471.45h4.65v28.34h13.56v4.08h-18.21V471.45z"></path> <path class="st0" d="M722.09,487.66c0-2.4,0.35-4.63,1.05-6.67c0.7-2.04,1.72-3.81,3.05-5.31c1.33-1.5,2.96-2.67,4.9-3.51 c1.93-0.85,4.13-1.27,6.6-1.27c2.45,0,4.64,0.42,6.56,1.27c1.93,0.85,3.56,2.02,4.9,3.51c1.34,1.5,2.36,3.27,3.07,5.31 c0.71,2.04,1.07,4.26,1.07,6.67c0,2.46-0.35,4.72-1.04,6.78c-0.7,2.06-1.71,3.82-3.04,5.31c-1.33,1.48-2.96,2.63-4.9,3.46 c-1.94,0.82-4.14,1.24-6.62,1.24c-2.48,0-4.69-0.41-6.62-1.24c-1.94-0.82-3.57-1.98-4.9-3.46c-1.33-1.48-2.34-3.25-3.04-5.31 C722.43,492.39,722.09,490.13,722.09,487.66z M727.01,487.68c0,1.62,0.21,3.19,0.62,4.71c0.42,1.52,1.06,2.87,1.93,4.05 c0.87,1.18,1.98,2.13,3.32,2.85c1.35,0.72,2.95,1.08,4.81,1.08s3.46-0.36,4.8-1.08s2.45-1.67,3.32-2.85 c0.88-1.18,1.52-2.53,1.94-4.05c0.42-1.52,0.62-3.09,0.62-4.71c-0.02-1.63-0.24-3.22-0.68-4.75c-0.44-1.54-1.1-2.89-1.98-4.07 c-0.88-1.18-2-2.12-3.33-2.83c-1.34-0.7-2.9-1.05-4.68-1.03c-1.8-0.02-3.36,0.33-4.69,1.03c-1.33,0.7-2.44,1.65-3.32,2.83 c-0.88,1.18-1.55,2.54-2,4.07C727.23,484.46,727.01,486.04,727.01,487.68z"></path> <path class="st0" d="M803.86,477.21c-1.13-0.74-2.38-1.29-3.74-1.66c-1.32-0.38-3.05-0.57-5.19-0.57 c-1.84-0.02-3.53,0.3-5.07,0.95c-1.53,0.65-2.85,1.55-3.95,2.69c-1.1,1.14-1.95,2.49-2.55,4.04c-0.6,1.55-0.89,3.22-0.86,5 c0,1.91,0.32,3.64,0.96,5.21c0.64,1.57,1.52,2.9,2.62,4.01c1.1,1.1,2.4,1.96,3.88,2.56c1.48,0.61,3.06,0.91,4.74,0.91 c0.8,0,1.47-0.01,2.01-0.05c0.54-0.03,0.99-0.07,1.37-0.13c0.38-0.05,0.71-0.11,0.99-0.18c0.28-0.07,0.56-0.13,0.85-0.19v-9.86 h-6.83v-3.81h11.45v16.85c-0.88,0.32-2.12,0.63-3.72,0.95c-0.79,0.17-1.69,0.29-2.71,0.37c-1.02,0.08-2.17,0.12-3.46,0.12 c-2.57,0-4.91-0.4-7.01-1.19c-2.1-0.79-3.9-1.93-5.39-3.4c-1.49-1.47-2.64-3.25-3.46-5.33c-0.82-2.08-1.22-4.41-1.22-7 c0-2.51,0.43-4.78,1.28-6.83c0.85-2.04,2.04-3.79,3.56-5.24c1.52-1.45,3.33-2.57,5.42-3.37c2.09-0.79,4.38-1.19,6.86-1.19 c1.19,0,2.23,0.04,3.12,0.12c0.88,0.08,1.69,0.2,2.4,0.35c0.72,0.15,1.39,0.33,2.03,0.52c0.63,0.2,1.29,0.41,1.97,0.63 L803.86,477.21z"></path> <path class="st0" d="M831.21,471.45h4.65v32.43h-4.65V471.45z"></path> <path class="st0" d="M876.87,476.35c-0.57-0.23-1.1-0.42-1.59-0.59c-0.48-0.17-0.96-0.31-1.42-0.42 c-0.46-0.11-0.94-0.2-1.43-0.26c-0.49-0.06-1.04-0.09-1.64-0.09c-0.65,0-1.31,0.07-1.98,0.2c-0.67,0.14-1.28,0.37-1.83,0.7 c-0.54,0.33-0.99,0.78-1.34,1.34c-0.35,0.56-0.52,1.25-0.52,2.09c0,1.06,0.34,1.91,1.02,2.56c0.68,0.68,1.54,1.3,2.59,1.85 c1.04,0.55,2.16,1.1,3.36,1.64c0.88,0.42,1.73,0.9,2.57,1.44c0.84,0.54,1.59,1.18,2.24,1.92c0.66,0.74,1.18,1.6,1.58,2.59 c0.39,0.98,0.59,2.14,0.59,3.47c0,1.72-0.31,3.2-0.94,4.42c-0.63,1.22-1.48,2.22-2.56,2.99c-1.08,0.77-2.34,1.34-3.78,1.7 c-1.44,0.36-2.96,0.54-4.56,0.54c-1.15,0-2.27-0.14-3.37-0.42c-1.1-0.28-2.19-0.59-3.28-0.94l0.45-4.29 c0.41,0.15,0.87,0.32,1.39,0.5c0.52,0.18,1.08,0.35,1.67,0.51s1.2,0.29,1.83,0.4c0.63,0.11,1.24,0.16,1.85,0.16 c0.65,0,1.35-0.1,2.1-0.29c0.75-0.2,1.44-0.51,2.07-0.93c0.64-0.42,1.16-0.97,1.58-1.63c0.42-0.67,0.62-1.47,0.62-2.43 c0-0.91-0.2-1.68-0.59-2.33c-0.39-0.64-0.92-1.21-1.58-1.7s-1.41-0.94-2.24-1.34c-0.84-0.4-1.69-0.81-2.56-1.23 c-0.87-0.42-1.72-0.87-2.56-1.36c-0.84-0.49-1.59-1.07-2.24-1.75c-0.66-0.67-1.18-1.47-1.58-2.38c-0.39-0.92-0.59-2-0.59-3.26 c0-1.42,0.27-2.68,0.8-3.79c0.54-1.1,1.28-2.03,2.22-2.77c0.94-0.74,2.05-1.3,3.31-1.69c1.26-0.39,2.62-0.58,4.07-0.58 c1.09,0,2.23,0.09,3.42,0.27c1.19,0.18,2.36,0.48,3.49,0.88L876.87,476.35z"></path> <path class="st0" d="M912.54,475.53h-10.07v-4.08h24.78v4.08h-10.07v28.34h-4.65V475.53z"></path> <path class="st0" d="M949.94,471.45h4.65v32.43h-4.65V471.45z"></path> <path class="st0" d="M1002.46,476.8c-2.06-1.21-4.29-1.81-6.69-1.81c-1.86,0-3.55,0.32-5.08,0.95c-1.53,0.64-2.83,1.52-3.92,2.64 c-1.09,1.13-1.93,2.47-2.53,4.02c-0.6,1.55-0.9,3.24-0.9,5.07c0,1.91,0.32,3.64,0.96,5.21c0.64,1.57,1.52,2.9,2.62,4.01 c1.1,1.1,2.4,1.96,3.88,2.56c1.48,0.61,3.06,0.91,4.74,0.91c0.57,0,1.19-0.03,1.85-0.1c0.66-0.07,1.3-0.17,1.94-0.31 c0.63-0.14,1.24-0.31,1.81-0.51c0.57-0.2,1.07-0.42,1.47-0.67l0.27,4.49c-0.63,0.26-1.27,0.47-1.92,0.63 c-0.64,0.17-1.3,0.28-1.98,0.34c-1.36,0.14-2.52,0.2-3.49,0.2c-2.57,0-4.91-0.4-7.01-1.19c-2.1-0.79-3.9-1.93-5.39-3.4 c-1.49-1.47-2.64-3.25-3.46-5.33c-0.82-2.08-1.22-4.41-1.22-7c0-2.51,0.43-4.78,1.28-6.83c0.85-2.04,2.04-3.79,3.56-5.24 c1.52-1.45,3.33-2.57,5.42-3.37c2.09-0.79,4.38-1.19,6.86-1.19c1.28,0,2.53,0.1,3.73,0.31c1.2,0.2,2.39,0.56,3.57,1.08 L1002.46,476.8z"></path> <path class="st0" d="M1044.8,476.35c-0.57-0.23-1.1-0.42-1.59-0.59c-0.48-0.17-0.96-0.31-1.42-0.42 c-0.46-0.11-0.94-0.2-1.43-0.26c-0.49-0.06-1.04-0.09-1.64-0.09c-0.65,0-1.31,0.07-1.98,0.2c-0.67,0.14-1.28,0.37-1.83,0.7 c-0.54,0.33-0.99,0.78-1.34,1.34c-0.35,0.56-0.52,1.25-0.52,2.09c0,1.06,0.34,1.91,1.02,2.56c0.68,0.68,1.54,1.3,2.58,1.85 c1.04,0.55,2.16,1.1,3.36,1.64c0.88,0.42,1.73,0.9,2.57,1.44c0.84,0.54,1.59,1.18,2.24,1.92c0.66,0.74,1.18,1.6,1.58,2.59 c0.39,0.98,0.59,2.14,0.59,3.47c0,1.72-0.31,3.2-0.94,4.42c-0.63,1.22-1.48,2.22-2.56,2.99c-1.08,0.77-2.34,1.34-3.78,1.7 c-1.44,0.36-2.96,0.54-4.56,0.54c-1.15,0-2.27-0.14-3.37-0.42c-1.1-0.28-2.19-0.59-3.28-0.94l0.45-4.29 c0.41,0.15,0.87,0.32,1.39,0.5c0.52,0.18,1.08,0.35,1.67,0.51c0.59,0.16,1.2,0.29,1.83,0.4c0.63,0.11,1.24,0.16,1.85,0.16 c0.65,0,1.35-0.1,2.1-0.29c0.75-0.2,1.44-0.51,2.07-0.93s1.16-0.97,1.58-1.63c0.42-0.67,0.62-1.47,0.62-2.43 c0-0.91-0.2-1.68-0.59-2.33c-0.39-0.64-0.92-1.21-1.58-1.7s-1.41-0.94-2.24-1.34c-0.84-0.4-1.69-0.81-2.56-1.23 c-0.87-0.42-1.72-0.87-2.56-1.36c-0.84-0.49-1.59-1.07-2.24-1.75c-0.66-0.67-1.18-1.47-1.58-2.38c-0.39-0.92-0.59-2-0.59-3.26 c0-1.42,0.27-2.68,0.8-3.79c0.54-1.1,1.28-2.03,2.22-2.77c0.94-0.74,2.05-1.3,3.31-1.69c1.26-0.39,2.62-0.58,4.07-0.58 c1.09,0,2.23,0.09,3.42,0.27c1.19,0.18,2.36,0.48,3.49,0.88L1044.8,476.35z"></path> </g> </g> </g> </svg> 